<?xml version="1.0" standalone="no"?><!DOCTYPE svg PUBLIC "-//W3C//DTD SVG 1.1//EN" "http://www.w3.org/Graphics/SVG/1.1/DTD/svg11.dtd"><svg t="1728880667440" class="icon" viewBox="0 0 1024 1024" version="1.1" xmlns="http://www.w3.org/2000/svg" p-id="6038" width="48" height="48" xmlns:xlink="http://www.w3.org/1999/xlink"><path d="M1024 368V0l-150.4 150.4C779.2 56 649.6 0 512 0 230.4 0 0 230.4 0 512s230.4 512 512 512c16 0 32-1.6 49.6-3.2 123.2-12.8 236.8-68.8 321.6-156.8 54.4-57.6 97.6-128 121.6-208L880 620.8C832 782.4 681.6 896 512 896 300.8 896 128 723.2 128 512S300.8 128 512 128c104 0 200 41.6 272 112l-128 128h368z" p-id="6039" fill="#ffc0cb"></path></svg>